# Exported from 3D Builder
o Object.1
v -8.089111 49.34137 -10.0
v -23.42041 44.175537 -10.0
v -18.506897 46.448914 -10.0
v -47.38269 15.965027 -10.0
v -49.706909 5.405945 -10.0
v -39.804626 -30.258728 -10.0
v -36.299805 -34.38501 -10.0
v 36.299805 -34.38501 -10.0
v 47.38266 -15.965027 -10.0
v -36.299805 34.38501 -10.0
v -2.70697 49.926697 -10.0
v 2.70697 49.926697 -10.0
v 13.376404 48.17749 -10.0
v 18.506897 46.448914 -10.0
v 28.059326 41.384399 -10.0
v 49.706909 -5.405945 -10.0
v 0.0 0.0 10.0
v 8.089111 -49.34137 -10.0
v -23.42041 -44.175476 -10.0
v -28.059326 -41.384338 -10.0
v -32.369324 -38.108154 -10.0
v -45.378784 -20.994507 -10.0
v -48.831055 -10.748535 -10.0
v -49.706909 -5.405945 -10.0
v 50.0 0.0 -10.0
v -50.0 0.0 -10.0
v 49.706909 5.405945 -10.0
v -48.831055 10.748535 -10.0
v 48.831024 10.748535 -10.0
v 47.38266 15.965027 -10.0
v 45.378754 20.994507 -10.0
v -45.378784 20.994507 -10.0
v 42.842865 25.777649 -10.0
v 39.804657 30.258728 -10.0
v -42.842896 25.777649 -10.0
v -39.804626 30.258728 -10.0
v 36.299805 34.38501 -10.0
v -32.369324 38.108154 -10.0
v 32.369324 38.108154 -10.0
v -28.059326 41.384399 -10.0
v 23.42041 44.175537 -10.0
v -13.376404 48.17749 -10.0
v 8.089111 49.34137 -10.0
v -47.38269 -15.965027 -10.0
v 48.831024 -10.748535 -10.0
v 45.378754 -20.994507 -10.0
v 42.842865 -25.777649 -10.0
v -42.842896 -25.777649 -10.0
v 39.804657 -30.258728 -10.0
v 32.369324 -38.108154 -10.0
v 28.059326 -41.384338 -10.0
v 23.42041 -44.175476 -10.0
v -18.506897 -46.448853 -10.0
v 18.506897 -46.448853 -10.0
v 13.376404 -48.17749 -10.0
v -13.376404 -48.17749 -10.0
v -8.089111 -49.34137 -10.0
v -2.70697 -49.926697 -10.0
v 2.70697 -49.926697 -10.0
v 50.0 0.0 -10.0
v 49.706909 5.405945 -10.0
v 49.706909 5.405945 -10.0
v -50.0 0.0 -10.0
v 49.706909 5.405945 -10.0
v -49.706909 5.405945 -10.0
v 48.831024 10.748535 -10.0
v -49.706909 5.405945 -10.0
v 48.831024 10.748535 -10.0
v -48.831055 10.748535 -10.0
v 47.38266 15.965027 -10.0
v 0.0 0.0 10.0
v 48.831024 10.748535 -10.0
v 0.0 0.0 10.0
v 47.38266 15.965027 -10.0
v 47.38266 15.965027 -10.0
v 45.378754 20.994507 -10.0
v 45.378754 20.994507 -10.0
v -47.38269 15.965027 -10.0
v 45.378754 20.994507 -10.0
v -45.378784 20.994507 -10.0
v 42.842865 25.777649 -10.0
v -45.378784 20.994507 -10.0
v 42.842865 25.777649 -10.0
v -42.842896 25.777649 -10.0
v 39.804657 30.258728 -10.0
v 0.0 0.0 10.0
v 42.842865 25.777649 -10.0
v 0.0 0.0 10.0
v 39.804657 30.258728 -10.0
v 39.804657 30.258728 -10.0
v 36.299805 34.38501 -10.0
v 36.299805 34.38501 -10.0
v -39.804626 30.258728 -10.0
v 36.299805 34.38501 -10.0
v -36.299805 34.38501 -10.0
v 32.369324 38.108154 -10.0
v -36.299805 34.38501 -10.0
v 32.369324 38.108154 -10.0
v -32.369324 38.108154 -10.0
v 28.059326 41.384399 -10.0
v 0.0 0.0 10.0
v 32.369324 38.108154 -10.0
v 0.0 0.0 10.0
v 28.059326 41.384399 -10.0
v 28.059326 41.384399 -10.0
v 23.42041 44.175537 -10.0
v 23.42041 44.175537 -10.0
v -28.059326 41.384399 -10.0
v 23.42041 44.175537 -10.0
v -23.42041 44.175537 -10.0
v 18.506897 46.448914 -10.0
v -23.42041 44.175537 -10.0
v 18.506897 46.448914 -10.0
v -18.506897 46.448914 -10.0
v 13.376404 48.17749 -10.0
v 0.0 0.0 10.0
v 18.506897 46.448914 -10.0
v 0.0 0.0 10.0
v 13.376404 48.17749 -10.0
v 13.376404 48.17749 -10.0
v 8.089111 49.34137 -10.0
v 8.089111 49.34137 -10.0
v -13.376404 48.17749 -10.0
v 8.089111 49.34137 -10.0
v -8.089111 49.34137 -10.0
v 2.70697 49.926697 -10.0
v -8.089111 49.34137 -10.0
v -2.70697 49.926697 -10.0
v 0.0 0.0 10.0
v 2.70697 49.926697 -10.0
v -8.089111 49.34137 -10.0
v 0.0 0.0 10.0
v -2.70697 49.926697 -10.0
v -13.376404 48.17749 -10.0
v 0.0 0.0 10.0
v -8.089111 49.34137 -10.0
v -18.506897 46.448914 -10.0
v 0.0 0.0 10.0
v -13.376404 48.17749 -10.0
v 2.70697 49.926697 -10.0
v 0.0 0.0 10.0
v 8.089111 49.34137 -10.0
v 13.376404 48.17749 -10.0
v -18.506897 46.448914 -10.0
v -13.376404 48.17749 -10.0
v -23.42041 44.175537 -10.0
v 0.0 0.0 10.0
v -18.506897 46.448914 -10.0
v -28.059326 41.384399 -10.0
v 0.0 0.0 10.0
v -23.42041 44.175537 -10.0
v -32.369324 38.108154 -10.0
v 0.0 0.0 10.0
v -28.059326 41.384399 -10.0
v 18.506897 46.448914 -10.0
v 0.0 0.0 10.0
v 23.42041 44.175537 -10.0
v 28.059326 41.384399 -10.0
v -32.369324 38.108154 -10.0
v -28.059326 41.384399 -10.0
v -36.299805 34.38501 -10.0
v 0.0 0.0 10.0
v -32.369324 38.108154 -10.0
v -39.804626 30.258728 -10.0
v 0.0 0.0 10.0
v -36.299805 34.38501 -10.0
v -42.842896 25.777649 -10.0
v 0.0 0.0 10.0
v -39.804626 30.258728 -10.0
v 32.369324 38.108154 -10.0
v 0.0 0.0 10.0
v 36.299805 34.38501 -10.0
v 39.804657 30.258728 -10.0
v -42.842896 25.777649 -10.0
v -39.804626 30.258728 -10.0
v -45.378784 20.994507 -10.0
v 0.0 0.0 10.0
v -42.842896 25.777649 -10.0
v -47.38269 15.965027 -10.0
v 0.0 0.0 10.0
v -45.378784 20.994507 -10.0
v -48.831055 10.748535 -10.0
v 0.0 0.0 10.0
v -47.38269 15.965027 -10.0
v 42.842865 25.777649 -10.0
v 0.0 0.0 10.0
v 45.378754 20.994507 -10.0
v 47.38266 15.965027 -10.0
v -48.831055 10.748535 -10.0
v -47.38269 15.965027 -10.0
v -49.706909 5.405945 -10.0
v 0.0 0.0 10.0
v -48.831055 10.748535 -10.0
v -50.0 0.0 -10.0
v 0.0 0.0 10.0
v -49.706909 5.405945 -10.0
v 0.0 0.0 10.0
v -50.0 0.0 -10.0
v 0.0 0.0 10.0
v -49.706909 -5.405945 -10.0
v -49.706909 -5.405945 -10.0
v -48.831055 -10.748535 -10.0
v -48.831055 -10.748535 -10.0
v 49.706909 -5.405945 -10.0
v -48.831055 -10.748535 -10.0
v 48.831024 -10.748535 -10.0
v -47.38269 -15.965027 -10.0
v 48.831024 -10.748535 -10.0
v -47.38269 -15.965027 -10.0
v 47.38266 -15.965027 -10.0
v -45.378784 -20.994507 -10.0
v 0.0 0.0 10.0
v -47.38269 -15.965027 -10.0
v 0.0 0.0 10.0
v -45.378784 -20.994507 -10.0
v -45.378784 -20.994507 -10.0
v -42.842896 -25.777649 -10.0
v -42.842896 -25.777649 -10.0
v 45.378754 -20.994507 -10.0
v -42.842896 -25.777649 -10.0
v 42.842865 -25.777649 -10.0
v -39.804626 -30.258728 -10.0
v 42.842865 -25.777649 -10.0
v -39.804626 -30.258728 -10.0
v 39.804657 -30.258728 -10.0
v -36.299805 -34.38501 -10.0
v 0.0 0.0 10.0
v -39.804626 -30.258728 -10.0
v 0.0 0.0 10.0
v -36.299805 -34.38501 -10.0
v -36.299805 -34.38501 -10.0
v -32.369324 -38.108154 -10.0
v -32.369324 -38.108154 -10.0
v 36.299805 -34.38501 -10.0
v -32.369324 -38.108154 -10.0
v 32.369324 -38.108154 -10.0
v -28.059326 -41.384338 -10.0
v 32.369324 -38.108154 -10.0
v -28.059326 -41.384338 -10.0
v 28.059326 -41.384338 -10.0
v -23.42041 -44.175476 -10.0
v 0.0 0.0 10.0
v -28.059326 -41.384338 -10.0
v 0.0 0.0 10.0
v -23.42041 -44.175476 -10.0
v -23.42041 -44.175476 -10.0
v -18.506897 -46.448853 -10.0
v -18.506897 -46.448853 -10.0
v 23.42041 -44.175476 -10.0
v -18.506897 -46.448853 -10.0
v 18.506897 -46.448853 -10.0
v -13.376404 -48.17749 -10.0
v 18.506897 -46.448853 -10.0
v -13.376404 -48.17749 -10.0
v 13.376404 -48.17749 -10.0
v -8.089111 -49.34137 -10.0
v 0.0 0.0 10.0
v -13.376404 -48.17749 -10.0
v 0.0 0.0 10.0
v -8.089111 -49.34137 -10.0
v -8.089111 -49.34137 -10.0
v -2.70697 -49.926697 -10.0
v -2.70697 -49.926697 -10.0
v 8.089111 -49.34137 -10.0
v 8.089111 -49.34137 -10.0
v 0.0 0.0 10.0
v 2.70697 -49.926697 -10.0
v 13.376404 -48.17749 -10.0
v 0.0 0.0 10.0
v 8.089111 -49.34137 -10.0
v 2.70697 -49.926697 -10.0
v 0.0 0.0 10.0
v -2.70697 -49.926697 -10.0
v -8.089111 -49.34137 -10.0
v 13.376404 -48.17749 -10.0
v 8.089111 -49.34137 -10.0
v 18.506897 -46.448853 -10.0
v 0.0 0.0 10.0
v 13.376404 -48.17749 -10.0
v 23.42041 -44.175476 -10.0
v 0.0 0.0 10.0
v 18.506897 -46.448853 -10.0
v 28.059326 -41.384338 -10.0
v 0.0 0.0 10.0
v 23.42041 -44.175476 -10.0
v -13.376404 -48.17749 -10.0
v 0.0 0.0 10.0
v -18.506897 -46.448853 -10.0
v -23.42041 -44.175476 -10.0
v 28.059326 -41.384338 -10.0
v 23.42041 -44.175476 -10.0
v 32.369324 -38.108154 -10.0
v 0.0 0.0 10.0
v 28.059326 -41.384338 -10.0
v 36.299805 -34.38501 -10.0
v 0.0 0.0 10.0
v 32.369324 -38.108154 -10.0
v 39.804657 -30.258728 -10.0
v 0.0 0.0 10.0
v 36.299805 -34.38501 -10.0
v -28.059326 -41.384338 -10.0
v 0.0 0.0 10.0
v -32.369324 -38.108154 -10.0
v -36.299805 -34.38501 -10.0
v 39.804657 -30.258728 -10.0
v 36.299805 -34.38501 -10.0
v 42.842865 -25.777649 -10.0
v 0.0 0.0 10.0
v 39.804657 -30.258728 -10.0
v 45.378754 -20.994507 -10.0
v 0.0 0.0 10.0
v 42.842865 -25.777649 -10.0
v 47.38266 -15.965027 -10.0
v 0.0 0.0 10.0
v 45.378754 -20.994507 -10.0
v -39.804626 -30.258728 -10.0
v 0.0 0.0 10.0
v -42.842896 -25.777649 -10.0
v -45.378784 -20.994507 -10.0
v 47.38266 -15.965027 -10.0
v 45.378754 -20.994507 -10.0
v 48.831024 -10.748535 -10.0
v 0.0 0.0 10.0
v 47.38266 -15.965027 -10.0
v 49.706909 -5.405945 -10.0
v 0.0 0.0 10.0
v 48.831024 -10.748535 -10.0
v 49.706909 -5.405945 -10.0
v -49.706909 -5.405945 -10.0
v 50.0 0.0 -10.0
v -47.38269 -15.965027 -10.0
v 0.0 0.0 10.0
v -48.831055 -10.748535 -10.0
v 50.0 0.0 -10.0
v -49.706909 -5.405945 -10.0
v -50.0 0.0 -10.0
v 50.0 0.0 -10.0
v 0.0 0.0 10.0
v 49.706909 -5.405945 -10.0
v 48.831024 10.748535 -10.0
v 0.0 0.0 10.0
v 49.706909 5.405945 -10.0

vt 0.141751 0.994138
vt 0.064226 0.942404
vt 0.078845 0.965171
vt 0.033103 0.659885
vt 0.031597 0.554139
vt 0.039173 0.196968
vt 0.042783 0.155645
vt 0.457217 0.155645
vt 0.466897 0.340115
vt 0.042783 0.844355
vt 0.207926 1.000000
vt 0.292074 1.000000
vt 0.397830 0.982482
vt 0.421155 0.965171
vt 0.445513 0.914452
vt 0.468403 0.445861
vt 0.750000 0.500000
vt 0.358249 0.005862
vt 0.064226 0.057597
vt 0.054487 0.085549
vt 0.047688 0.118359
vt 0.034521 0.289747
vt 0.032148 0.392357
vt 0.031597 0.445861
vt 0.468584 0.500000
vt 0.031416 0.500000
vt 0.468403 0.554139
vt 0.032148 0.607643
vt 0.467851 0.607643
vt 0.466897 0.659885
vt 0.465479 0.710253
vt 0.034521 0.710253
vt 0.463505 0.758155
vt 0.460827 0.803032
vt 0.036495 0.758155
vt 0.039173 0.803032
vt 0.457217 0.844355
vt 0.047688 0.881641
vt 0.452312 0.881641
vt 0.054487 0.914452
vt 0.435774 0.942404
vt 0.102170 0.982482
vt 0.358249 0.994138
vt 0.033103 0.340115
vt 0.467851 0.392357
vt 0.465479 0.289747
vt 0.463505 0.241845
vt 0.036495 0.241845
vt 0.460827 0.196968
vt 0.452312 0.118359
vt 0.445513 0.085549
vt 0.435774 0.057597
vt 0.078845 0.034830
vt 0.421155 0.034830
vt 0.397830 0.017518
vt 0.102170 0.017518
vt 0.141751 0.005862
vt 0.207926 0.000000
vt 0.292074 0.000000
vt 0.468584 0.500000
vt 0.468403 0.554139
vt 0.468403 0.554139
vt 0.031416 0.500000
vt 0.468403 0.554139
vt 0.031597 0.554139
vt 0.467851 0.607643
vt 0.031597 0.554139
vt 0.467851 0.607643
vt 0.032148 0.607643
vt 0.466897 0.659885
vt 0.750000 0.500000
vt 0.467851 0.607643
vt 0.750000 0.500000
vt 0.466897 0.659885
vt 0.466897 0.659885
vt 0.465479 0.710253
vt 0.465479 0.710253
vt 0.033103 0.659885
vt 0.465479 0.710253
vt 0.034521 0.710253
vt 0.463505 0.758155
vt 0.034521 0.710253
vt 0.463505 0.758155
vt 0.036495 0.758155
vt 0.460827 0.803032
vt 0.750000 0.500000
vt 0.463505 0.758155
vt 0.750000 0.500000
vt 0.460827 0.803032
vt 0.460827 0.803032
vt 0.457217 0.844355
vt 0.457217 0.844355
vt 0.039173 0.803032
vt 0.457217 0.844355
vt 0.042783 0.844355
vt 0.452312 0.881641
vt 0.042783 0.844355
vt 0.452312 0.881641
vt 0.047688 0.881641
vt 0.445513 0.914452
vt 0.750000 0.500000
vt 0.452312 0.881641
vt 0.750000 0.500000
vt 0.445513 0.914452
vt 0.445513 0.914452
vt 0.435774 0.942404
vt 0.435774 0.942404
vt 0.054487 0.914452
vt 0.435774 0.942404
vt 0.064226 0.942404
vt 0.421155 0.965171
vt 0.064226 0.942404
vt 0.421155 0.965171
vt 0.078845 0.965171
vt 0.397830 0.982482
vt 0.750000 0.500000
vt 0.421155 0.965171
vt 0.750000 0.500000
vt 0.397830 0.982482
vt 0.397830 0.982482
vt 0.358249 0.994138
vt 0.358249 0.994138
vt 0.102170 0.982482
vt 0.358249 0.994138
vt 0.141751 0.994138
vt 0.292074 1.000000
vt 0.141751 0.994138
vt 0.207926 1.000000
vt 0.750000 0.500000
vt 0.292074 1.000000
vt 0.141751 0.994138
vt 0.750000 0.500000
vt 0.207926 1.000000
vt 0.102170 0.982482
vt 0.750000 0.500000
vt 0.141751 0.994138
vt 0.078845 0.965171
vt 0.750000 0.500000
vt 0.102170 0.982482
vt 0.292074 1.000000
vt 0.750000 0.500000
vt 0.358249 0.994138
vt 0.397830 0.982482
vt 0.078845 0.965171
vt 0.102170 0.982482
vt 0.064226 0.942404
vt 0.750000 0.500000
vt 0.078845 0.965171
vt 0.054487 0.914452
vt 0.750000 0.500000
vt 0.064226 0.942404
vt 0.047688 0.881641
vt 0.750000 0.500000
vt 0.054487 0.914452
vt 0.421155 0.965171
vt 0.750000 0.500000
vt 0.435774 0.942404
vt 0.445513 0.914452
vt 0.047688 0.881641
vt 0.054487 0.914452
vt 0.042783 0.844355
vt 0.750000 0.500000
vt 0.047688 0.881641
vt 0.039173 0.803032
vt 0.750000 0.500000
vt 0.042783 0.844355
vt 0.036495 0.758155
vt 0.750000 0.500000
vt 0.039173 0.803032
vt 0.452312 0.881641
vt 0.750000 0.500000
vt 0.457217 0.844355
vt 0.460827 0.803032
vt 0.036495 0.758155
vt 0.039173 0.803032
vt 0.034521 0.710253
vt 0.750000 0.500000
vt 0.036495 0.758155
vt 0.033103 0.659885
vt 0.750000 0.500000
vt 0.034521 0.710253
vt 0.032148 0.607643
vt 0.750000 0.500000
vt 0.033103 0.659885
vt 0.463505 0.758155
vt 0.750000 0.500000
vt 0.465479 0.710253
vt 0.466897 0.659885
vt 0.032148 0.607643
vt 0.033103 0.659885
vt 0.031597 0.554139
vt 0.750000 0.500000
vt 0.032148 0.607643
vt 0.031416 0.500000
vt 0.750000 0.500000
vt 0.031597 0.554139
vt 0.750000 0.500000
vt 0.031416 0.500000
vt 0.750000 0.500000
vt 0.031597 0.445861
vt 0.031597 0.445861
vt 0.032148 0.392357
vt 0.032148 0.392357
vt 0.468403 0.445861
vt 0.032148 0.392357
vt 0.467851 0.392357
vt 0.033103 0.340115
vt 0.467851 0.392357
vt 0.033103 0.340115
vt 0.466897 0.340115
vt 0.034521 0.289747
vt 0.750000 0.500000
vt 0.033103 0.340115
vt 0.750000 0.500000
vt 0.034521 0.289747
vt 0.034521 0.289747
vt 0.036495 0.241845
vt 0.036495 0.241845
vt 0.465479 0.289747
vt 0.036495 0.241845
vt 0.463505 0.241845
vt 0.039173 0.196968
vt 0.463505 0.241845
vt 0.039173 0.196968
vt 0.460827 0.196968
vt 0.042783 0.155645
vt 0.750000 0.500000
vt 0.039173 0.196968
vt 0.750000 0.500000
vt 0.042783 0.155645
vt 0.042783 0.155645
vt 0.047688 0.118359
vt 0.047688 0.118359
vt 0.457217 0.155645
vt 0.047688 0.118359
vt 0.452312 0.118359
vt 0.054487 0.085549
vt 0.452312 0.118359
vt 0.054487 0.085549
vt 0.445513 0.085549
vt 0.064226 0.057597
vt 0.750000 0.500000
vt 0.054487 0.085549
vt 0.750000 0.500000
vt 0.064226 0.057597
vt 0.064226 0.057597
vt 0.078845 0.034830
vt 0.078845 0.034830
vt 0.435774 0.057597
vt 0.078845 0.034830
vt 0.421155 0.034830
vt 0.102170 0.017518
vt 0.421155 0.034830
vt 0.102170 0.017518
vt 0.397830 0.017518
vt 0.141751 0.005862
vt 0.750000 0.500000
vt 0.102170 0.017518
vt 0.750000 0.500000
vt 0.141751 0.005862
vt 0.141751 0.005862
vt 0.207926 0.000000
vt 0.207926 0.000000
vt 0.358249 0.005862
vt 0.358249 0.005862
vt 0.750000 0.500000
vt 0.292074 0.000000
vt 0.397830 0.017518
vt 0.750000 0.500000
vt 0.358249 0.005862
vt 0.292074 0.000000
vt 0.750000 0.500000
vt 0.207926 0.000000
vt 0.141751 0.005862
vt 0.397830 0.017518
vt 0.358249 0.005862
vt 0.421155 0.034830
vt 0.750000 0.500000
vt 0.397830 0.017518
vt 0.435774 0.057597
vt 0.750000 0.500000
vt 0.421155 0.034830
vt 0.445513 0.085549
vt 0.750000 0.500000
vt 0.435774 0.057597
vt 0.102170 0.017518
vt 0.750000 0.500000
vt 0.078845 0.034830
vt 0.064226 0.057597
vt 0.445513 0.085549
vt 0.435774 0.057597
vt 0.452312 0.118359
vt 0.750000 0.500000
vt 0.445513 0.085549
vt 0.457217 0.155645
vt 0.750000 0.500000
vt 0.452312 0.118359
vt 0.460827 0.196968
vt 0.750000 0.500000
vt 0.457217 0.155645
vt 0.054487 0.085549
vt 0.750000 0.500000
vt 0.047688 0.118359
vt 0.042783 0.155645
vt 0.460827 0.196968
vt 0.457217 0.155645
vt 0.463505 0.241845
vt 0.750000 0.500000
vt 0.460827 0.196968
vt 0.465479 0.289747
vt 0.750000 0.500000
vt 0.463505 0.241845
vt 0.466897 0.340115
vt 0.750000 0.500000
vt 0.465479 0.289747
vt 0.039173 0.196968
vt 0.750000 0.500000
vt 0.036495 0.241845
vt 0.034521 0.289747
vt 0.466897 0.340115
vt 0.465479 0.289747
vt 0.467851 0.392357
vt 0.750000 0.500000
vt 0.466897 0.340115
vt 0.468403 0.445861
vt 0.750000 0.500000
vt 0.467851 0.392357
vt 0.468403 0.445861
vt 0.031597 0.445861
vt 0.468584 0.500000
vt 0.033103 0.340115
vt 0.750000 0.500000
vt 0.032148 0.392357
vt 0.468584 0.500000
vt 0.031597 0.445861
vt 0.031416 0.500000
vt 0.468584 0.500000
vt 0.750000 0.500000
vt 0.468403 0.445861
vt 0.467851 0.607643
vt 0.750000 0.500000
vt 0.468403 0.554139

f 27/27 17/17 25/25
f 60/60 26/26 61/61
f 62/62 63/63 5/5
f 64/64 65/65 29/29
f 66/66 67/67 28/28
f 68/68 69/69 30/30
f 70/70 71/71 72/72
f 31/31 73/73 74/74
f 75/75 4/4 76/76
f 77/77 78/78 32/32
f 79/79 80/80 33/33
f 81/81 82/82 35/35
f 83/83 84/84 34/34
f 85/85 86/86 87/87
f 37/37 88/88 89/89
f 90/90 36/36 91/91
f 92/92 93/93 10/10
f 94/94 95/95 39/39
f 96/96 97/97 38/38
f 98/98 99/99 15/15
f 100/100 101/101 102/102
f 41/41 103/103 104/104
f 105/105 40/40 106/106
f 107/107 108/108 2/2
f 109/109 110/110 14/14
f 111/111 112/112 3/3
f 113/113 114/114 13/13
f 115/115 116/116 117/117
f 43/43 118/118 119/119
f 120/120 42/42 121/121
f 122/122 123/123 1/1
f 124/124 125/125 12/12
f 126/126 127/127 11/11
f 128/128 129/129 130/130
f 131/131 132/132 133/133
f 134/134 135/135 136/136
f 137/137 138/138 139/139
f 140/140 141/141 142/142
f 143/143 144/144 145/145
f 146/146 147/147 148/148
f 149/149 150/150 151/151
f 152/152 153/153 154/154
f 155/155 156/156 157/157
f 158/158 159/159 160/160
f 161/161 162/162 163/163
f 164/164 165/165 166/166
f 167/167 168/168 169/169
f 170/170 171/171 172/172
f 173/173 174/174 175/175
f 176/176 177/177 178/178
f 179/179 180/180 181/181
f 182/182 183/183 184/184
f 185/185 186/186 187/187
f 188/188 189/189 190/190
f 191/191 192/192 193/193
f 194/194 195/195 196/196
f 24/24 197/197 198/198
f 23/23 199/199 200/200
f 201/201 16/16 202/202
f 203/203 204/204 45/45
f 205/205 206/206 44/44
f 207/207 208/208 9/9
f 209/209 210/210 22/22
f 211/211 212/212 213/213
f 48/48 214/214 215/215
f 216/216 46/46 217/217
f 218/218 219/219 47/47
f 220/220 221/221 6/6
f 222/222 223/223 49/49
f 224/224 225/225 7/7
f 226/226 227/227 228/228
f 21/21 229/229 230/230
f 231/231 8/8 232/232
f 233/233 234/234 50/50
f 235/235 236/236 20/20
f 237/237 238/238 51/51
f 239/239 240/240 19/19
f 241/241 242/242 243/243
f 53/53 244/244 245/245
f 246/246 52/52 247/247
f 248/248 249/249 54/54
f 250/250 251/251 56/56
f 252/252 253/253 55/55
f 254/254 255/255 57/57
f 256/256 257/257 258/258
f 58/58 259/259 260/260
f 261/261 18/18 262/262
f 263/263 264/264 59/59
f 265/265 266/266 267/267
f 268/268 269/269 270/270
f 271/271 272/272 273/273
f 274/274 275/275 276/276
f 277/277 278/278 279/279
f 280/280 281/281 282/282
f 283/283 284/284 285/285
f 286/286 287/287 288/288
f 289/289 290/290 291/291
f 292/292 293/293 294/294
f 295/295 296/296 297/297
f 298/298 299/299 300/300
f 301/301 302/302 303/303
f 304/304 305/305 306/306
f 307/307 308/308 309/309
f 310/310 311/311 312/312
f 313/313 314/314 315/315
f 316/316 317/317 318/318
f 319/319 320/320 321/321
f 322/322 323/323 324/324
f 325/325 326/326 327/327
f 328/328 329/329 330/330
f 331/331 332/332 333/333
f 334/334 335/335 336/336
f 337/337 338/338 339/339
f 340/340 341/341 342/342
