# Exported from 3D Builder
o Object.1
v 1.992794 0.169609 -5.833333 188 188 188
v 1.992794 -0.169617 -5.833333 188 188 188
v 1.935467 -0.503960 -5.833333 188 188 188
v 1.885757 -0.666283 -12.500000 188 188 188
v 1.746029 -0.975395 -12.500000 188 188 188
v 1.822456 -0.823807 -5.833333 188 188 188
v 1.657021 -1.119949 -5.833333 188 188 188
v 1.321350 -1.501343 -12.500000 188 188 188
v 0.900410 -1.785851 -5.833333 188 188 188
v 0.585648 -1.912338 -5.833333 188 188 188
v 0.421360 -1.955109 -12.500000 188 188 188
v 0.254036 -1.983803 -5.833333 188 188 188
v 0.084885 -1.998199 -12.500000 188 188 188
v -0.421356 -1.955109 -5.833333 188 188 188
v -0.585644 -1.912338 -12.500000 188 188 188
v -0.745712 -1.855782 -5.833333 188 188 188
v -1.048615 -1.703056 -5.833333 188 188 188
v -1.189266 -1.607994 -12.500000 188 188 188
v -1.556072 -1.256439 -5.833333 188 188 188
v -1.746029 -0.975395 -5.833333 188 188 188
v -1.822456 -0.823807 -12.500000 188 188 188
v -2.000000 0.000000 -5.833333 188 188 188
v -1.992794 0.169609 -12.500000 188 188 188
v -1.971230 0.337997 -5.833333 188 188 188
v -1.885754 0.666275 -5.833333 188 188 188
v -1.822456 0.823799 -12.500000 188 188 188
v -1.657017 1.119949 -12.500000 188 188 188
v -1.746029 0.975388 -5.833333 188 188 188
v -1.443913 1.383873 -12.500000 188 188 188
v -1.189266 1.607994 -12.500000 188 188 188
v -0.900406 1.785851 -12.500000 188 188 188
v -0.254036 1.983803 -12.500000 188 188 188
v 0.084885 1.998199 -12.500000 188 188 188
v 0.254036 1.983803 -5.833333 188 188 188
v 0.745712 1.855774 -12.500000 188 188 188
v 0.585648 1.912331 -5.833333 188 188 188
v 1.321350 1.501343 -12.500000 188 188 188
v 1.556072 1.256439 -12.500000 188 188 188
v 1.746029 0.975388 -12.500000 188 188 188
v 1.822456 0.823799 -5.833333 188 188 188
v 1.971233 0.337997 -12.500000 188 188 188
v 2.000000 0.000000 7.500000 188 188 188
v 1.992794 0.169609 0.833333 188 188 188
v 1.885757 0.666275 7.500000 188 188 188
v 1.443913 1.383873 0.833333 188 188 188
v 1.189266 1.607994 0.833333 188 188 188
v 1.048615 1.703056 7.500000 188 188 188
v 0.421360 1.955109 7.500000 188 188 188
v -0.084881 1.998199 0.833333 188 188 188
v -0.254036 1.983803 7.500000 188 188 188
v -0.421356 1.955109 0.833333 188 188 188
v -1.189266 1.607994 7.500000 188 188 188
v -1.556072 1.256439 0.833333 188 188 188
v -1.746029 0.975388 0.833333 188 188 188
v -1.822456 0.823799 7.500000 188 188 188
v -1.885754 0.666275 0.833333 188 188 188
v -1.971230 0.337997 0.833333 188 188 188
v -1.992794 -0.169617 7.500000 188 188 188
v -1.935467 -0.503960 7.500000 188 188 188
v -1.885754 -0.666283 0.833333 188 188 188
v -1.822456 -0.823807 7.500000 188 188 188
v -1.657017 -1.119949 7.500000 188 188 188
v -1.746029 -0.975395 0.833333 188 188 188
v -1.443913 -1.383881 7.500000 188 188 188
v -1.556072 -1.256439 0.833333 188 188 188
v -1.189266 -1.607994 7.500000 188 188 188
v -0.585644 -1.912338 7.500000 188 188 188
v -0.254036 -1.983803 7.500000 188 188 188
v 0.254036 -1.983803 0.833333 188 188 188
v 0.585648 -1.912338 0.833333 188 188 188
v 1.048615 -1.703056 7.500000 188 188 188
v 1.321350 -1.501343 7.500000 188 188 188
v 1.443913 -1.383881 0.833333 188 188 188
v 1.657021 -1.119949 0.833333 188 188 188
v 1.746029 -0.975395 7.500000 188 188 188
v 1.885757 -0.666283 7.500000 188 188 188
v 1.971233 -0.338005 7.500000 188 188 188
v 1.992794 -0.169617 0.833333 188 188 188
v -1.556072 1.256439 -5.833333 188 188 188
v -1.321350 1.501343 -5.833333 188 188 188
v -1.321350 1.501343 0.833333 188 188 188
v -1.048615 1.703056 -5.833333 188 188 188
v -1.048615 1.703056 0.833333 188 188 188
v -0.745712 1.855774 -5.833333 188 188 188
v -0.421356 1.955109 -5.833333 188 188 188
v -0.745712 1.855774 0.833333 188 188 188
v -0.084881 1.998199 -5.833333 188 188 188
v 0.254036 1.983803 0.833333 188 188 188
v 0.585648 1.912331 0.833333 188 188 188
v 0.900410 1.785851 0.833333 188 188 188
v 0.900410 1.785851 -5.833333 188 188 188
v 1.189266 1.607994 -5.833333 188 188 188
v 1.443913 1.383873 -5.833333 188 188 188
v 1.657021 1.119949 -5.833333 188 188 188
v 1.657021 1.119949 0.833333 188 188 188
v 1.935467 0.503952 -5.833333 188 188 188
v 1.822456 0.823799 0.833333 188 188 188
v 1.935467 0.503952 0.833333 188 188 188
v 1.935467 -0.503960 0.833333 188 188 188
v 1.822456 -0.823807 0.833333 188 188 188
v 1.443913 -1.383881 -5.833333 188 188 188
v 1.189266 -1.607994 -5.833333 188 188 188
v 1.189266 -1.607994 0.833333 188 188 188
v 0.900410 -1.785851 0.833333 188 188 188
v -0.084881 -1.998199 -5.833333 188 188 188
v -0.084881 -1.998199 0.833333 188 188 188
v -0.421356 -1.955109 0.833333 188 188 188
v -0.745712 -1.855782 0.833333 188 188 188
v -1.048615 -1.703056 0.833333 188 188 188
v -1.321350 -1.501343 -5.833333 188 188 188
v -1.321350 -1.501343 0.833333 188 188 188
v -1.885754 -0.666283 -5.833333 188 188 188
v -1.971230 -0.338005 0.833333 188 188 188
v -1.971230 -0.338005 -5.833333 188 188 188
v -2.000000 0.000000 0.833333 188 188 188
v -1.992794 -0.169617 -12.500000 188 188 188
v 2.000000 0.000000 -12.500000 188 188 188
v -1.935467 0.503952 -12.500000 188 188 188
v 1.885757 0.666275 -12.500000 188 188 188
v 1.048615 1.703056 -12.500000 188 188 188
v -0.585644 1.912331 -12.500000 188 188 188
v 0.421360 1.955109 -12.500000 188 188 188
v 1.971233 -0.338005 -12.500000 188 188 188
v -1.935467 -0.503960 -12.500000 188 188 188
v -1.657017 -1.119949 -12.500000 188 188 188
v 1.556072 -1.256439 -12.500000 188 188 188
v -1.443913 -1.383881 -12.500000 188 188 188
v -0.900406 -1.785851 -12.500000 188 188 188
v 1.048615 -1.703056 -12.500000 188 188 188
v 0.745712 -1.855782 -12.500000 188 188 188
v -0.254036 -1.983803 -12.500000 188 188 188
v 1.971233 0.337997 7.500000 188 188 188
v 1.746029 0.975388 7.500000 188 188 188
v 0.000000 0.000000 12.500000 188 188 188
v 1.321350 1.501343 7.500000 188 188 188
v 0.745712 1.855774 7.500000 188 188 188
v -0.585644 1.912331 7.500000 188 188 188
v -1.443913 1.383873 7.500000 188 188 188
v -1.935467 0.503952 7.500000 188 188 188
v 0.084885 -1.998199 7.500000 188 188 188
v 1.556072 -1.256439 7.500000 188 188 188
v -1.992794 0.169609 7.500000 188 188 188
v -1.657017 1.119949 7.500000 188 188 188
v -0.900406 1.785851 7.500000 188 188 188
v 0.084885 1.998199 7.500000 188 188 188
v 1.556072 1.256439 7.500000 188 188 188
v 0.745712 -1.855782 7.500000 188 188 188
v 0.421360 -1.955109 7.500000 188 188 188
v -0.900406 -1.785851 7.500000 188 188 188

v 2.000000 0.000000 -12.500000 188 188 188
v 1.971233 0.337997 -12.500000 188 188 188
v 1.971233 0.337997 -12.500000 188 188 188
v -1.992794 0.169609 -12.500000 188 188 188
v 1.971233 0.337997 -12.500000 188 188 188
v -1.935467 0.503952 -12.500000 188 188 188
v 1.885757 0.666275 -12.500000 188 188 188
v 1.971233 0.337997 -12.500000 188 188 188
v 1.885757 0.666275 -12.500000 188 188 188
v 1.935467 0.503952 -5.833333 188 188 188
v 1.822456 0.823799 -5.833333 188 188 188
v 1.935467 0.503952 -5.833333 188 188 188
v 1.935467 0.503952 -5.833333 188 188 188
v 1.822456 0.823799 0.833333 188 188 188
v 1.935467 0.503952 -5.833333 188 188 188
v 1.935467 0.503952 0.833333 188 188 188
v 1.992794 0.169609 -5.833333 188 188 188
v 1.992794 0.169609 -5.833333 188 188 188
v 1.935467 0.503952 0.833333 188 188 188
v 1.992794 0.169609 -5.833333 188 188 188
v 1.992794 0.169609 0.833333 188 188 188
v 1.992794 -0.169617 -5.833333 188 188 188
v 1.992794 0.169609 0.833333 188 188 188
v 1.992794 -0.169617 -5.833333 188 188 188
v 1.992794 -0.169617 0.833333 188 188 188
v 1.992794 -0.169617 -5.833333 188 188 188
v 1.935467 -0.503960 -5.833333 188 188 188
v 1.971233 -0.338005 -12.500000 188 188 188
v 1.935467 -0.503960 -5.833333 188 188 188
v 1.971233 -0.338005 -12.500000 188 188 188
v 1.885757 -0.666283 -12.500000 188 188 188
v -1.935467 -0.503960 -12.500000 188 188 188
v 1.885757 -0.666283 -12.500000 188 188 188
v -1.822456 -0.823807 -12.500000 188 188 188
v -1.935467 -0.503960 -12.500000 188 188 188
v -1.935467 -0.503960 -12.500000 188 188 188
v -1.885754 -0.666283 -5.833333 188 188 188
v -1.935467 -0.503960 -12.500000 188 188 188
v -1.971230 -0.338005 -5.833333 188 188 188
v -1.992794 -0.169617 -12.500000 188 188 188
v -1.971230 -0.338005 -5.833333 188 188 188
v -1.992794 -0.169617 -12.500000 188 188 188
v -2.000000 0.000000 -5.833333 188 188 188
v -1.992794 0.169609 -12.500000 188 188 188
v -1.992794 0.169609 -12.500000 188 188 188
v -2.000000 0.000000 -5.833333 188 188 188
v -2.000000 0.000000 -5.833333 188 188 188
v -1.971230 0.337997 -5.833333 188 188 188
v -1.971230 0.337997 -5.833333 188 188 188
v -2.000000 0.000000 0.833333 188 188 188
v -1.971230 0.337997 -5.833333 188 188 188
v -1.971230 0.337997 0.833333 188 188 188
v -1.935467 0.503952 -12.500000 188 188 188
v -1.971230 0.337997 -5.833333 188 188 188
v -1.885754 0.666275 -5.833333 188 188 188
v -1.935467 0.503952 -12.500000 188 188 188
v -1.885754 0.666275 -5.833333 188 188 188
v -1.822456 0.823799 -12.500000 188 188 188
v -1.885754 0.666275 -5.833333 188 188 188
v -1.822456 0.823799 -12.500000 188 188 188
v -1.746029 0.975388 -5.833333 188 188 188
v -1.822456 0.823799 -12.500000 188 188 188
v -1.657017 1.119949 -12.500000 188 188 188
v 1.746029 0.975388 -12.500000 188 188 188
v -1.657017 1.119949 -12.500000 188 188 188
v 1.556072 1.256439 -12.500000 188 188 188
v 1.746029 0.975388 -12.500000 188 188 188
v 1.746029 0.975388 -12.500000 188 188 188
v 1.657021 1.119949 -5.833333 188 188 188
v 1.822456 0.823799 -5.833333 188 188 188
v 1.657021 1.119949 -5.833333 188 188 188
v 1.822456 0.823799 -5.833333 188 188 188
v 1.657021 1.119949 -5.833333 188 188 188
v 1.657021 1.119949 0.833333 188 188 188
v 1.657021 1.119949 0.833333 188 188 188
v 1.443913 1.383873 0.833333 188 188 188
v 1.556072 1.256439 7.500000 188 188 188
v 1.443913 1.383873 0.833333 188 188 188
v 1.321350 1.501343 7.500000 188 188 188
v 1.556072 1.256439 7.500000 188 188 188
v 1.556072 1.256439 7.500000 188 188 188
v 0.000000 0.000000 12.500000 188 188 188
v 1.746029 0.975388 7.500000 188 188 188
v 0.000000 0.000000 12.500000 188 188 188
v 1.885757 0.666275 7.500000 188 188 188
v 1.822456 0.823799 0.833333 188 188 188
v 1.746029 0.975388 7.500000 188 188 188
v 1.746029 0.975388 7.500000 188 188 188
v 1.822456 0.823799 0.833333 188 188 188
v 1.657021 1.119949 0.833333 188 188 188
v 1.885757 0.666275 7.500000 188 188 188
v 0.000000 0.000000 12.500000 188 188 188
v 1.971233 0.337997 7.500000 188 188 188
v 1.935467 0.503952 0.833333 188 188 188
v 1.885757 0.666275 7.500000 188 188 188
v 1.971233 0.337997 7.500000 188 188 188
v 0.000000 0.000000 12.500000 188 188 188
v 2.000000 0.000000 7.500000 188 188 188
v 1.992794 0.169609 0.833333 188 188 188
v 1.971233 0.337997 7.500000 188 188 188
v 2.000000 0.000000 7.500000 188 188 188
v 0.000000 0.000000 12.500000 188 188 188
v 1.971233 -0.338005 7.500000 188 188 188
v 1.992794 -0.169617 0.833333 188 188 188
v 2.000000 0.000000 7.500000 188 188 188
v 1.971233 -0.338005 7.500000 188 188 188
v 1.992794 -0.169617 0.833333 188 188 188
v 1.935467 -0.503960 0.833333 188 188 188
v 1.971233 -0.338005 7.500000 188 188 188
v 1.885757 -0.666283 7.500000 188 188 188
v 1.935467 -0.503960 0.833333 188 188 188
v 1.935467 -0.503960 0.833333 188 188 188
v 1.822456 -0.823807 0.833333 188 188 188
v 1.822456 -0.823807 -5.833333 188 188 188
v 1.822456 -0.823807 0.833333 188 188 188
v 1.822456 -0.823807 -5.833333 188 188 188
v 1.657021 -1.119949 -5.833333 188 188 188
v 1.746029 -0.975395 -12.500000 188 188 188
v 1.657021 -1.119949 -5.833333 188 188 188
v 1.746029 -0.975395 -12.500000 188 188 188
v 1.556072 -1.256439 -12.500000 188 188 188
v -1.657017 -1.119949 -12.500000 188 188 188
v 1.556072 -1.256439 -12.500000 188 188 188
v -1.443913 -1.383881 -12.500000 188 188 188
v -1.657017 -1.119949 -12.500000 188 188 188
v -1.657017 -1.119949 -12.500000 188 188 188
v -1.556072 -1.256439 -5.833333 188 188 188
v -1.657017 -1.119949 -12.500000 188 188 188
v -1.746029 -0.975395 -5.833333 188 188 188
v -1.822456 -0.823807 -12.500000 188 188 188
v -1.556072 -1.256439 -5.833333 188 188 188
v -1.746029 -0.975395 -5.833333 188 188 188
v -1.746029 -0.975395 -5.833333 188 188 188
v -1.556072 -1.256439 0.833333 188 188 188
v -1.746029 -0.975395 -5.833333 188 188 188
v -1.746029 -0.975395 0.833333 188 188 188
v -1.885754 -0.666283 -5.833333 188 188 188
v -1.885754 -0.666283 -5.833333 188 188 188
v -1.746029 -0.975395 0.833333 188 188 188
v -1.885754 -0.666283 0.833333 188 188 188
v -1.746029 -0.975395 0.833333 188 188 188
v -1.822456 -0.823807 7.500000 188 188 188
v -1.746029 -0.975395 0.833333 188 188 188
v -1.657017 -1.119949 7.500000 188 188 188
v 0.000000 0.000000 12.500000 188 188 188
v -1.822456 -0.823807 7.500000 188 188 188
v -1.822456 -0.823807 7.500000 188 188 188
v 0.000000 0.000000 12.500000 188 188 188
v -1.935467 -0.503960 7.500000 188 188 188
v 0.000000 0.000000 12.500000 188 188 188
v -1.992794 -0.169617 7.500000 188 188 188
v -1.935467 -0.503960 7.500000 188 188 188
v -1.935467 -0.503960 7.500000 188 188 188
v -1.971230 -0.338005 0.833333 188 188 188
v -1.885754 -0.666283 0.833333 188 188 188
v -1.971230 -0.338005 -5.833333 188 188 188
v -1.885754 -0.666283 0.833333 188 188 188
v -1.971230 -0.338005 0.833333 188 188 188
v -1.992794 -0.169617 7.500000 188 188 188
v -2.000000 0.000000 0.833333 188 188 188
v -1.971230 -0.338005 0.833333 188 188 188
v -2.000000 0.000000 0.833333 188 188 188
v -1.992794 -0.169617 7.500000 188 188 188
v -1.992794 -0.169617 7.500000 188 188 188
v 0.000000 0.000000 12.500000 188 188 188
v -1.992794 0.169609 7.500000 188 188 188
v -1.992794 0.169609 7.500000 188 188 188
v 0.000000 0.000000 12.500000 188 188 188
v -1.935467 0.503952 7.500000 188 188 188
v -1.971230 0.337997 0.833333 188 188 188
v -1.992794 0.169609 7.500000 188 188 188
v -1.935467 0.503952 7.500000 188 188 188
v -1.971230 0.337997 0.833333 188 188 188
v -1.885754 0.666275 0.833333 188 188 188
v -1.935467 0.503952 7.500000 188 188 188
v -1.822456 0.823799 7.500000 188 188 188
v -1.885754 0.666275 0.833333 188 188 188
v -1.746029 0.975388 -5.833333 188 188 188
v -1.885754 0.666275 0.833333 188 188 188
v -1.746029 0.975388 0.833333 188 188 188
v -1.746029 0.975388 -5.833333 188 188 188
v -1.746029 0.975388 0.833333 188 188 188
v -1.556072 1.256439 -5.833333 188 188 188
v -1.746029 0.975388 0.833333 188 188 188
v -1.556072 1.256439 -5.833333 188 188 188
v -1.556072 1.256439 0.833333 188 188 188
v -1.556072 1.256439 -5.833333 188 188 188
v -1.321350 1.501343 -5.833333 188 188 188
v -1.443913 1.383873 -12.500000 188 188 188
v -1.321350 1.501343 -5.833333 188 188 188
v -1.443913 1.383873 -12.500000 188 188 188
v -1.189266 1.607994 -12.500000 188 188 188
v 1.321350 1.501343 -12.500000 188 188 188
v -1.189266 1.607994 -12.500000 188 188 188
v 1.048615 1.703056 -12.500000 188 188 188
v 1.321350 1.501343 -12.500000 188 188 188
v 1.321350 1.501343 -12.500000 188 188 188
v 1.189266 1.607994 -5.833333 188 188 188
v 1.321350 1.501343 -12.500000 188 188 188
v 1.443913 1.383873 -5.833333 188 188 188
v 1.556072 1.256439 -12.500000 188 188 188
v 1.189266 1.607994 -5.833333 188 188 188
v 1.443913 1.383873 -5.833333 188 188 188
v 1.443913 1.383873 -5.833333 188 188 188
v 1.189266 1.607994 0.833333 188 188 188
v 1.443913 1.383873 0.833333 188 188 188
v 1.189266 1.607994 -5.833333 188 188 188
v 1.189266 1.607994 0.833333 188 188 188
v 1.189266 1.607994 0.833333 188 188 188
v 0.900410 1.785851 0.833333 188 188 188
v 1.048615 1.703056 7.500000 188 188 188
v 0.900410 1.785851 0.833333 188 188 188
v 0.745712 1.855774 7.500000 188 188 188
v 0.000000 0.000000 12.500000 188 188 188
v 1.048615 1.703056 7.500000 188 188 188
v 0.000000 0.000000 12.500000 188 188 188
v 0.745712 1.855774 7.500000 188 188 188
v 0.745712 1.855774 7.500000 188 188 188
v 0.421360 1.955109 7.500000 188 188 188
v 0.421360 1.955109 7.500000 188 188 188
v 0.585648 1.912331 0.833333 188 188 188
v 0.421360 1.955109 7.500000 188 188 188
v 0.254036 1.983803 0.833333 188 188 188
v 0.084885 1.998199 7.500000 188 188 188
v 0.254036 1.983803 0.833333 188 188 188
v 0.084885 1.998199 7.500000 188 188 188
v -0.084881 1.998199 0.833333 188 188 188
v -0.254036 1.983803 7.500000 188 188 188
v 0.000000 0.000000 12.500000 188 188 188
v 0.084885 1.998199 7.500000 188 188 188
v 0.000000 0.000000 12.500000 188 188 188
v -0.254036 1.983803 7.500000 188 188 188
v -0.254036 1.983803 7.500000 188 188 188
v -0.585644 1.912331 7.500000 188 188 188
v -0.585644 1.912331 7.500000 188 188 188
v -0.421356 1.955109 0.833333 188 188 188
v -0.585644 1.912331 7.500000 188 188 188
v -0.745712 1.855774 0.833333 188 188 188
v -0.900406 1.785851 7.500000 188 188 188
v -0.745712 1.855774 0.833333 188 188 188
v -0.900406 1.785851 7.500000 188 188 188
v -1.048615 1.703056 0.833333 188 188 188
v -1.189266 1.607994 7.500000 188 188 188
v 0.000000 0.000000 12.500000 188 188 188
v -0.900406 1.785851 7.500000 188 188 188
v 0.000000 0.000000 12.500000 188 188 188
v -1.189266 1.607994 7.500000 188 188 188
v -1.189266 1.607994 7.500000 188 188 188
v -1.443913 1.383873 7.500000 188 188 188
v -1.443913 1.383873 7.500000 188 188 188
v -1.321350 1.501343 0.833333 188 188 188
v -1.556072 1.256439 0.833333 188 188 188
v -1.443913 1.383873 7.500000 188 188 188
v -1.556072 1.256439 0.833333 188 188 188
v -1.657017 1.119949 7.500000 188 188 188
v 0.000000 0.000000 12.500000 188 188 188
v -1.443913 1.383873 7.500000 188 188 188
v -1.822456 0.823799 7.500000 188 188 188
v 0.000000 0.000000 12.500000 188 188 188
v -1.657017 1.119949 7.500000 188 188 188
v -1.189266 1.607994 7.500000 188 188 188
v -1.048615 1.703056 0.833333 188 188 188
v -1.321350 1.501343 0.833333 188 188 188
v -1.321350 1.501343 0.833333 188 188 188
v -1.048615 1.703056 0.833333 188 188 188
v -1.048615 1.703056 -5.833333 188 188 188
v -1.048615 1.703056 0.833333 188 188 188
v -1.048615 1.703056 -5.833333 188 188 188
v -0.745712 1.855774 -5.833333 188 188 188
v -0.900406 1.785851 -12.500000 188 188 188
v -0.745712 1.855774 -5.833333 188 188 188
v -0.900406 1.785851 -12.500000 188 188 188
v -0.585644 1.912331 -12.500000 188 188 188
v 0.745712 1.855774 -12.500000 188 188 188
v -0.585644 1.912331 -12.500000 188 188 188
v 0.421360 1.955109 -12.500000 188 188 188
v 0.745712 1.855774 -12.500000 188 188 188
v 0.745712 1.855774 -12.500000 188 188 188
v 0.585648 1.912331 -5.833333 188 188 188
v 0.745712 1.855774 -12.500000 188 188 188
v 0.900410 1.785851 -5.833333 188 188 188
v 1.048615 1.703056 -12.500000 188 188 188
v 0.585648 1.912331 -5.833333 188 188 188
v 0.585648 1.912331 0.833333 188 188 188
v 0.900410 1.785851 -5.833333 188 188 188
v 0.900410 1.785851 -5.833333 188 188 188
v 0.585648 1.912331 0.833333 188 188 188
v 0.900410 1.785851 0.833333 188 188 188
v 0.421360 1.955109 -12.500000 188 188 188
v 0.585648 1.912331 -5.833333 188 188 188
v 0.254036 1.983803 -5.833333 188 188 188
v 0.254036 1.983803 0.833333 188 188 188
v 0.585648 1.912331 -5.833333 188 188 188
v 0.254036 1.983803 -5.833333 188 188 188
v 0.421360 1.955109 -12.500000 188 188 188
v 0.421360 1.955109 -12.500000 188 188 188
v 0.084885 1.998199 -12.500000 188 188 188
v -0.254036 1.983803 -12.500000 188 188 188
v 0.084885 1.998199 -12.500000 188 188 188
v -0.254036 1.983803 -12.500000 188 188 188
v -0.084881 1.998199 -5.833333 188 188 188
v -0.421356 1.955109 -5.833333 188 188 188
v -0.421356 1.955109 0.833333 188 188 188
v -0.084881 1.998199 -5.833333 188 188 188
v -0.084881 1.998199 -5.833333 188 188 188
v -0.421356 1.955109 0.833333 188 188 188
v -0.084881 1.998199 0.833333 188 188 188
v -0.084881 1.998199 -5.833333 188 188 188
v -0.084881 1.998199 0.833333 188 188 188
v 0.254036 1.983803 -5.833333 188 188 188
v -0.585644 1.912331 -12.500000 188 188 188
v -0.421356 1.955109 -5.833333 188 188 188
v -0.254036 1.983803 -12.500000 188 188 188
v 0.084885 1.998199 -12.500000 188 188 188
v -0.084881 1.998199 -5.833333 188 188 188
v 0.254036 1.983803 -5.833333 188 188 188
v 0.421360 1.955109 -12.500000 188 188 188
v -0.585644 1.912331 -12.500000 188 188 188
v -0.254036 1.983803 -12.500000 188 188 188
v 1.048615 1.703056 -12.500000 188 188 188
v -0.900406 1.785851 -12.500000 188 188 188
v 0.745712 1.855774 -12.500000 188 188 188
v -0.585644 1.912331 -12.500000 188 188 188
v -0.745712 1.855774 -5.833333 188 188 188
v -0.421356 1.955109 -5.833333 188 188 188
v -0.745712 1.855774 -5.833333 188 188 188
v -0.745712 1.855774 0.833333 188 188 188
v -0.421356 1.955109 -5.833333 188 188 188
v -1.189266 1.607994 -12.500000 188 188 188
v -1.048615 1.703056 -5.833333 188 188 188
v -0.900406 1.785851 -12.500000 188 188 188
v -1.321350 1.501343 -5.833333 188 188 188
v -1.321350 1.501343 0.833333 188 188 188
v -1.048615 1.703056 -5.833333 188 188 188
v -0.745712 1.855774 -5.833333 188 188 188
v -1.048615 1.703056 0.833333 188 188 188
v -0.745712 1.855774 0.833333 188 188 188
v -0.421356 1.955109 -5.833333 188 188 188
v -0.745712 1.855774 0.833333 188 188 188
v -0.421356 1.955109 0.833333 188 188 188
v -0.900406 1.785851 7.500000 188 188 188
v 0.000000 0.000000 12.500000 188 188 188
v -0.585644 1.912331 7.500000 188 188 188
v -0.254036 1.983803 7.500000 188 188 188
v -0.084881 1.998199 0.833333 188 188 188
v -0.421356 1.955109 0.833333 188 188 188
v 0.254036 1.983803 -5.833333 188 188 188
v -0.084881 1.998199 0.833333 188 188 188
v 0.254036 1.983803 0.833333 188 188 188
v 0.585648 1.912331 -5.833333 188 188 188
v 0.254036 1.983803 0.833333 188 188 188
v 0.585648 1.912331 0.833333 188 188 188
v 0.084885 1.998199 7.500000 188 188 188
v 0.000000 0.000000 12.500000 188 188 188
v 0.421360 1.955109 7.500000 188 188 188
v 0.745712 1.855774 7.500000 188 188 188
v 0.900410 1.785851 0.833333 188 188 188
v 0.585648 1.912331 0.833333 188 188 188
v 1.321350 1.501343 7.500000 188 188 188
v 1.189266 1.607994 0.833333 188 188 188
v 1.048615 1.703056 7.500000 188 188 188
v 0.900410 1.785851 -5.833333 188 188 188
v 0.900410 1.785851 0.833333 188 188 188
v 1.189266 1.607994 -5.833333 188 188 188
v 1.048615 1.703056 -12.500000 188 188 188
v 0.900410 1.785851 -5.833333 188 188 188
v 1.189266 1.607994 -5.833333 188 188 188
v 1.048615 1.703056 -12.500000 188 188 188
v -1.189266 1.607994 -12.500000 188 188 188
v -0.900406 1.785851 -12.500000 188 188 188
v 1.556072 1.256439 -12.500000 188 188 188
v -1.443913 1.383873 -12.500000 188 188 188
v 1.321350 1.501343 -12.500000 188 188 188
v -1.189266 1.607994 -12.500000 188 188 188
v -1.321350 1.501343 -5.833333 188 188 188
v -1.048615 1.703056 -5.833333 188 188 188
v -1.657017 1.119949 -12.500000 188 188 188
v -1.556072 1.256439 -5.833333 188 188 188
v -1.443913 1.383873 -12.500000 188 188 188
v -1.321350 1.501343 -5.833333 188 188 188
v -1.556072 1.256439 0.833333 188 188 188
v -1.321350 1.501343 0.833333 188 188 188
v -1.657017 1.119949 7.500000 188 188 188
v -1.556072 1.256439 0.833333 188 188 188
v -1.746029 0.975388 0.833333 188 188 188
v -1.657017 1.119949 7.500000 188 188 188
v -1.746029 0.975388 0.833333 188 188 188
v -1.822456 0.823799 7.500000 188 188 188
v -1.935467 0.503952 7.500000 188 188 188
v 0.000000 0.000000 12.500000 188 188 188
v -1.822456 0.823799 7.500000 188 188 188
v 0.000000 0.000000 12.500000 188 188 188
v -1.657017 -1.119949 7.500000 188 188 188
v -1.657017 -1.119949 7.500000 188 188 188
v -1.556072 -1.256439 0.833333 188 188 188
v -1.443913 -1.383881 7.500000 188 188 188
v -1.443913 -1.383881 7.500000 188 188 188
v -1.556072 -1.256439 0.833333 188 188 188
v -1.443913 -1.383881 7.500000 188 188 188
v -1.321350 -1.501343 0.833333 188 188 188
v -1.189266 -1.607994 7.500000 188 188 188
v -1.321350 -1.501343 0.833333 188 188 188
v -1.189266 -1.607994 7.500000 188 188 188
v -1.048615 -1.703056 0.833333 188 188 188
v -0.900406 -1.785851 7.500000 188 188 188
v 0.000000 0.000000 12.500000 188 188 188
v -1.189266 -1.607994 7.500000 188 188 188
v 0.000000 0.000000 12.500000 188 188 188
v -0.900406 -1.785851 7.500000 188 188 188
v -0.900406 -1.785851 7.500000 188 188 188
v -0.585644 -1.912338 7.500000 188 188 188
v -0.585644 -1.912338 7.500000 188 188 188
v -0.745712 -1.855782 0.833333 188 188 188
v -0.585644 -1.912338 7.500000 188 188 188
v -0.421356 -1.955109 0.833333 188 188 188
v -0.254036 -1.983803 7.500000 188 188 188
v -0.421356 -1.955109 0.833333 188 188 188
v -0.254036 -1.983803 7.500000 188 188 188
v -0.084881 -1.998199 0.833333 188 188 188
v 0.084885 -1.998199 7.500000 188 188 188
v 0.000000 0.000000 12.500000 188 188 188
v -0.254036 -1.983803 7.500000 188 188 188
v 0.000000 0.000000 12.500000 188 188 188
v 0.084885 -1.998199 7.500000 188 188 188
v 0.084885 -1.998199 7.500000 188 188 188
v 0.421360 -1.955109 7.500000 188 188 188
v 0.421360 -1.955109 7.500000 188 188 188
v 0.254036 -1.983803 0.833333 188 188 188
v 0.421360 -1.955109 7.500000 188 188 188
v 0.585648 -1.912338 0.833333 188 188 188
v 0.745712 -1.855782 7.500000 188 188 188
v 0.585648 -1.912338 0.833333 188 188 188
v 0.745712 -1.855782 7.500000 188 188 188
v 0.900410 -1.785851 0.833333 188 188 188
v 1.048615 -1.703056 7.500000 188 188 188
v 0.000000 0.000000 12.500000 188 188 188
v 0.745712 -1.855782 7.500000 188 188 188
v 0.000000 0.000000 12.500000 188 188 188
v 1.048615 -1.703056 7.500000 188 188 188
v 1.048615 -1.703056 7.500000 188 188 188
v 1.321350 -1.501343 7.500000 188 188 188
v 1.321350 -1.501343 7.500000 188 188 188
v 1.189266 -1.607994 0.833333 188 188 188
v 1.321350 -1.501343 7.500000 188 188 188
v 1.443913 -1.383881 0.833333 188 188 188
v 1.556072 -1.256439 7.500000 188 188 188
v 1.443913 -1.383881 0.833333 188 188 188
v 1.556072 -1.256439 7.500000 188 188 188
v 1.657021 -1.119949 0.833333 188 188 188
v 1.746029 -0.975395 7.500000 188 188 188
v 0.000000 0.000000 12.500000 188 188 188
v 1.556072 -1.256439 7.500000 188 188 188
v 1.885757 -0.666283 7.500000 188 188 188
v 0.000000 0.000000 12.500000 188 188 188
v 1.746029 -0.975395 7.500000 188 188 188
v 1.746029 -0.975395 7.500000 188 188 188
v 1.657021 -1.119949 0.833333 188 188 188
v 1.822456 -0.823807 0.833333 188 188 188
v 1.657021 -1.119949 0.833333 188 188 188
v 1.443913 -1.383881 0.833333 188 188 188
v 1.443913 -1.383881 -5.833333 188 188 188
v 1.443913 -1.383881 0.833333 188 188 188
v 1.443913 -1.383881 -5.833333 188 188 188
v 1.189266 -1.607994 -5.833333 188 188 188
v 1.321350 -1.501343 -12.500000 188 188 188
v 1.189266 -1.607994 -5.833333 188 188 188
v 1.321350 -1.501343 -12.500000 188 188 188
v 1.048615 -1.703056 -12.500000 188 188 188
v -1.189266 -1.607994 -12.500000 188 188 188
v 1.048615 -1.703056 -12.500000 188 188 188
v -0.900406 -1.785851 -12.500000 188 188 188
v -1.189266 -1.607994 -12.500000 188 188 188
v -1.189266 -1.607994 -12.500000 188 188 188
v -1.048615 -1.703056 -5.833333 188 188 188
v -1.189266 -1.607994 -12.500000 188 188 188
v -1.321350 -1.501343 -5.833333 188 188 188
v -1.443913 -1.383881 -12.500000 188 188 188
v -1.048615 -1.703056 -5.833333 188 188 188
v -1.048615 -1.703056 0.833333 188 188 188
v -1.321350 -1.501343 -5.833333 188 188 188
v -1.048615 -1.703056 -5.833333 188 188 188
v -0.745712 -1.855782 0.833333 188 188 188
v -1.048615 -1.703056 0.833333 188 188 188
v -0.745712 -1.855782 0.833333 188 188 188
v -1.048615 -1.703056 -5.833333 188 188 188
v -0.900406 -1.785851 -12.500000 188 188 188
v -0.745712 -1.855782 -5.833333 188 188 188
v -1.048615 -1.703056 -5.833333 188 188 188
v -0.745712 -1.855782 -5.833333 188 188 188
v -0.900406 -1.785851 -12.500000 188 188 188
v -0.900406 -1.785851 -12.500000 188 188 188
v -0.585644 -1.912338 -12.500000 188 188 188
v -0.585644 -1.912338 -12.500000 188 188 188
v 0.745712 -1.855782 -12.500000 188 188 188
v -0.585644 -1.912338 -12.500000 188 188 188
v 0.421360 -1.955109 -12.500000 188 188 188
v -0.254036 -1.983803 -12.500000 188 188 188
v -0.585644 -1.912338 -12.500000 188 188 188
v -0.254036 -1.983803 -12.500000 188 188 188
v -0.421356 -1.955109 -5.833333 188 188 188
v -0.084881 -1.998199 -5.833333 188 188 188
v -0.084881 -1.998199 0.833333 188 188 188
v -0.421356 -1.955109 -5.833333 188 188 188
v -0.084881 -1.998199 -5.833333 188 188 188
v 0.254036 -1.983803 0.833333 188 188 188
v -0.084881 -1.998199 0.833333 188 188 188
v 0.254036 -1.983803 0.833333 188 188 188
v -0.084881 -1.998199 -5.833333 188 188 188
v 0.254036 -1.983803 -5.833333 188 188 188
v -0.084881 -1.998199 -5.833333 188 188 188
v 0.421360 -1.955109 -12.500000 188 188 188
v 0.254036 -1.983803 -5.833333 188 188 188
v 0.084885 -1.998199 -12.500000 188 188 188
v 0.421360 -1.955109 -12.500000 188 188 188
v 0.254036 -1.983803 -5.833333 188 188 188
v 0.585648 -1.912338 -5.833333 188 188 188
v 0.585648 -1.912338 0.833333 188 188 188
v 0.254036 -1.983803 -5.833333 188 188 188
v 0.084885 -1.998199 -12.500000 188 188 188
v -0.084881 -1.998199 -5.833333 188 188 188
v -0.254036 -1.983803 -12.500000 188 188 188
v -0.254036 -1.983803 -12.500000 188 188 188
v 0.421360 -1.955109 -12.500000 188 188 188
v 0.084885 -1.998199 -12.500000 188 188 188
v 0.745712 -1.855782 -12.500000 188 188 188
v 0.585648 -1.912338 -5.833333 188 188 188
v 0.421360 -1.955109 -12.500000 188 188 188
v 0.745712 -1.855782 -12.500000 188 188 188
v 0.585648 -1.912338 -5.833333 188 188 188
v 0.900410 -1.785851 -5.833333 188 188 188
v 0.900410 -1.785851 0.833333 188 188 188
v 0.585648 -1.912338 -5.833333 188 188 188
v 0.900410 -1.785851 -5.833333 188 188 188
v 1.189266 -1.607994 0.833333 188 188 188
v 0.900410 -1.785851 0.833333 188 188 188
v 1.189266 -1.607994 -5.833333 188 188 188
v 1.189266 -1.607994 0.833333 188 188 188
v 0.900410 -1.785851 -5.833333 188 188 188
v 1.048615 -1.703056 -12.500000 188 188 188
v 0.900410 -1.785851 -5.833333 188 188 188
v 0.745712 -1.855782 -12.500000 188 188 188
v -0.585644 -1.912338 -12.500000 188 188 188
v -0.421356 -1.955109 -5.833333 188 188 188
v -0.745712 -1.855782 -5.833333 188 188 188
v -0.421356 -1.955109 -5.833333 188 188 188
v -0.421356 -1.955109 0.833333 188 188 188
v -0.745712 -1.855782 -5.833333 188 188 188
v -0.900406 -1.785851 -12.500000 188 188 188
v 1.048615 -1.703056 -12.500000 188 188 188
v 0.745712 -1.855782 -12.500000 188 188 188
v -1.443913 -1.383881 -12.500000 188 188 188
v 1.321350 -1.501343 -12.500000 188 188 188
v -1.189266 -1.607994 -12.500000 188 188 188
v 1.048615 -1.703056 -12.500000 188 188 188
v 1.189266 -1.607994 -5.833333 188 188 188
v 0.900410 -1.785851 -5.833333 188 188 188
v 1.556072 -1.256439 -12.500000 188 188 188
v 1.443913 -1.383881 -5.833333 188 188 188
v 1.321350 -1.501343 -12.500000 188 188 188
v 1.657021 -1.119949 -5.833333 188 188 188
v 1.657021 -1.119949 0.833333 188 188 188
v 1.443913 -1.383881 -5.833333 188 188 188
v 1.189266 -1.607994 -5.833333 188 188 188
v 1.443913 -1.383881 0.833333 188 188 188
v 1.189266 -1.607994 0.833333 188 188 188
v 1.556072 -1.256439 7.500000 188 188 188
v 0.000000 0.000000 12.500000 188 188 188
v 1.321350 -1.501343 7.500000 188 188 188
v 1.048615 -1.703056 7.500000 188 188 188
v 0.900410 -1.785851 0.833333 188 188 188
v 1.189266 -1.607994 0.833333 188 188 188
v 0.585648 -1.912338 -5.833333 188 188 188
v 0.900410 -1.785851 0.833333 188 188 188
v 0.585648 -1.912338 0.833333 188 188 188
v 0.254036 -1.983803 -5.833333 188 188 188
v 0.585648 -1.912338 0.833333 188 188 188
v 0.254036 -1.983803 0.833333 188 188 188
v 0.745712 -1.855782 7.500000 188 188 188
v 0.000000 0.000000 12.500000 188 188 188
v 0.421360 -1.955109 7.500000 188 188 188
v 0.084885 -1.998199 7.500000 188 188 188
v -0.084881 -1.998199 0.833333 188 188 188
v 0.254036 -1.983803 0.833333 188 188 188
v -0.421356 -1.955109 -5.833333 188 188 188
v -0.084881 -1.998199 0.833333 188 188 188
v -0.421356 -1.955109 0.833333 188 188 188
v -0.745712 -1.855782 -5.833333 188 188 188
v -0.421356 -1.955109 0.833333 188 188 188
v -0.745712 -1.855782 0.833333 188 188 188
v -0.254036 -1.983803 7.500000 188 188 188
v 0.000000 0.000000 12.500000 188 188 188
v -0.585644 -1.912338 7.500000 188 188 188
v -0.900406 -1.785851 7.500000 188 188 188
v -1.048615 -1.703056 0.833333 188 188 188
v -0.745712 -1.855782 0.833333 188 188 188
v -1.321350 -1.501343 -5.833333 188 188 188
v -1.048615 -1.703056 0.833333 188 188 188
v -1.321350 -1.501343 0.833333 188 188 188
v -1.321350 -1.501343 -5.833333 188 188 188
v -1.321350 -1.501343 0.833333 188 188 188
v -1.556072 -1.256439 -5.833333 188 188 188
v -1.189266 -1.607994 7.500000 188 188 188
v 0.000000 0.000000 12.500000 188 188 188
v -1.443913 -1.383881 7.500000 188 188 188
v -1.935467 -0.503960 7.500000 188 188 188
v -1.885754 -0.666283 0.833333 188 188 188
v -1.822456 -0.823807 7.500000 188 188 188
v -1.657017 -1.119949 7.500000 188 188 188
v -1.746029 -0.975395 0.833333 188 188 188
v -1.556072 -1.256439 0.833333 188 188 188
v -1.556072 -1.256439 -5.833333 188 188 188
v -1.321350 -1.501343 0.833333 188 188 188
v -1.556072 -1.256439 0.833333 188 188 188
v -1.443913 -1.383881 -12.500000 188 188 188
v -1.321350 -1.501343 -5.833333 188 188 188
v -1.556072 -1.256439 -5.833333 188 188 188
v -1.443913 -1.383881 -12.500000 188 188 188
v 1.556072 -1.256439 -12.500000 188 188 188
v 1.321350 -1.501343 -12.500000 188 188 188
v -1.822456 -0.823807 -12.500000 188 188 188
v 1.746029 -0.975395 -12.500000 188 188 188
v -1.657017 -1.119949 -12.500000 188 188 188
v 1.556072 -1.256439 -12.500000 188 188 188
v 1.657021 -1.119949 -5.833333 188 188 188
v 1.443913 -1.383881 -5.833333 188 188 188
v 1.885757 -0.666283 -12.500000 188 188 188
v 1.822456 -0.823807 -5.833333 188 188 188
v 1.746029 -0.975395 -12.500000 188 188 188
v 1.657021 -1.119949 -5.833333 188 188 188
v 1.822456 -0.823807 0.833333 188 188 188
v 1.657021 -1.119949 0.833333 188 188 188
v 1.935467 -0.503960 -5.833333 188 188 188
v 1.935467 -0.503960 0.833333 188 188 188
v 1.822456 -0.823807 -5.833333 188 188 188
v 1.746029 -0.975395 7.500000 188 188 188
v 1.822456 -0.823807 0.833333 188 188 188
v 1.885757 -0.666283 7.500000 188 188 188
v 1.971233 -0.338005 7.500000 188 188 188
v 0.000000 0.000000 12.500000 188 188 188
v 1.885757 -0.666283 7.500000 188 188 188
v 1.048615 1.703056 7.500000 188 188 188
v 0.000000 0.000000 12.500000 188 188 188
v 1.321350 1.501343 7.500000 188 188 188
v 1.321350 1.501343 7.500000 188 188 188
v 1.443913 1.383873 0.833333 188 188 188
v 1.189266 1.607994 0.833333 188 188 188
v 1.746029 0.975388 7.500000 188 188 188
v 1.657021 1.119949 0.833333 188 188 188
v 1.556072 1.256439 7.500000 188 188 188
v 1.443913 1.383873 -5.833333 188 188 188
v 1.443913 1.383873 0.833333 188 188 188
v 1.657021 1.119949 -5.833333 188 188 188
v 1.556072 1.256439 -12.500000 188 188 188
v 1.443913 1.383873 -5.833333 188 188 188
v 1.657021 1.119949 -5.833333 188 188 188
v 1.556072 1.256439 -12.500000 188 188 188
v -1.657017 1.119949 -12.500000 188 188 188
v -1.443913 1.383873 -12.500000 188 188 188
v 1.885757 0.666275 -12.500000 188 188 188
v -1.822456 0.823799 -12.500000 188 188 188
v 1.746029 0.975388 -12.500000 188 188 188
v -1.657017 1.119949 -12.500000 188 188 188
v -1.746029 0.975388 -5.833333 188 188 188
v -1.556072 1.256439 -5.833333 188 188 188
v -1.885754 0.666275 -5.833333 188 188 188
v -1.885754 0.666275 0.833333 188 188 188
v -1.746029 0.975388 -5.833333 188 188 188
v -1.885754 0.666275 -5.833333 188 188 188
v -1.971230 0.337997 0.833333 188 188 188
v -1.885754 0.666275 0.833333 188 188 188
v -1.992794 0.169609 7.500000 188 188 188
v -1.971230 0.337997 0.833333 188 188 188
v -2.000000 0.000000 0.833333 188 188 188
v -2.000000 0.000000 -5.833333 188 188 188
v -1.971230 -0.338005 0.833333 188 188 188
v -2.000000 0.000000 0.833333 188 188 188
v -1.971230 -0.338005 -5.833333 188 188 188
v -1.971230 -0.338005 0.833333 188 188 188
v -2.000000 0.000000 -5.833333 188 188 188
v -1.885754 -0.666283 -5.833333 188 188 188
v -1.885754 -0.666283 0.833333 188 188 188
v -1.971230 -0.338005 -5.833333 188 188 188
v -1.822456 -0.823807 -12.500000 188 188 188
v -1.746029 -0.975395 -5.833333 188 188 188
v -1.885754 -0.666283 -5.833333 188 188 188
v -1.822456 -0.823807 -12.500000 188 188 188
v 1.885757 -0.666283 -12.500000 188 188 188
v 1.746029 -0.975395 -12.500000 188 188 188
v -1.992794 -0.169617 -12.500000 188 188 188
v 1.971233 -0.338005 -12.500000 188 188 188
v -1.935467 -0.503960 -12.500000 188 188 188
v 1.971233 -0.338005 -12.500000 188 188 188
v -1.992794 -0.169617 -12.500000 188 188 188
v 2.000000 0.000000 -12.500000 188 188 188
v 1.885757 -0.666283 -12.500000 188 188 188
v 1.935467 -0.503960 -5.833333 188 188 188
v 1.822456 -0.823807 -5.833333 188 188 188
v 2.000000 0.000000 -12.500000 188 188 188
v 1.992794 -0.169617 -5.833333 188 188 188
v 1.971233 -0.338005 -12.500000 188 188 188
v 1.935467 -0.503960 -5.833333 188 188 188
v 1.992794 -0.169617 0.833333 188 188 188
v 1.935467 -0.503960 0.833333 188 188 188
v 2.000000 0.000000 7.500000 188 188 188
v 1.992794 -0.169617 0.833333 188 188 188
v 1.992794 0.169609 0.833333 188 188 188
v 1.971233 0.337997 7.500000 188 188 188
v 1.992794 0.169609 0.833333 188 188 188
v 1.935467 0.503952 0.833333 188 188 188
v 1.885757 0.666275 7.500000 188 188 188
v 1.935467 0.503952 0.833333 188 188 188
v 1.822456 0.823799 0.833333 188 188 188
v 1.822456 0.823799 -5.833333 188 188 188
v 1.657021 1.119949 0.833333 188 188 188
v 1.822456 0.823799 0.833333 188 188 188
v 1.746029 0.975388 -12.500000 188 188 188
v 1.822456 0.823799 -5.833333 188 188 188
v 1.885757 0.666275 -12.500000 188 188 188
v 1.885757 0.666275 -12.500000 188 188 188
v -1.935467 0.503952 -12.500000 188 188 188
v -1.822456 0.823799 -12.500000 188 188 188
v -1.992794 0.169609 -12.500000 188 188 188
v -1.971230 0.337997 -5.833333 188 188 188
v -1.935467 0.503952 -12.500000 188 188 188
v 2.000000 0.000000 -12.500000 188 188 188
v -1.992794 -0.169617 -12.500000 188 188 188
v -1.992794 0.169609 -12.500000 188 188 188
v 2.000000 0.000000 -12.500000 188 188 188
v 1.992794 0.169609 -5.833333 188 188 188
v 1.992794 -0.169617 -5.833333 188 188 188
v 1.971233 0.337997 -12.500000 188 188 188
v 1.935467 0.503952 -5.833333 188 188 188
v 1.992794 0.169609 -5.833333 188 188 188

f 41 1 117
f 150 23 151
f 152 153 118
f 154 155 119
f 156 96 157
f 158 40 159
f 160 97 161
f 162 163 98
f 164 165 166
f 167 168 43
f 169 170 2
f 171 172 78
f 173 174 3
f 123 175 176
f 177 178 4
f 124 179 180
f 181 182 21
f 183 112 184
f 185 186 114
f 187 188 116
f 189 190 22
f 191 192 193
f 194 195 24
f 196 115 197
f 198 199 57
f 200 201 25
f 202 203 204
f 205 206 26
f 207 208 28
f 209 210 27
f 39 211 212
f 213 214 38
f 215 94 216
f 217 218 219
f 220 95 221
f 222 45 223
f 146 224 225
f 226 227 135
f 228 134 229
f 230 231 133
f 232 233 44
f 234 235 236
f 237 238 239
f 240 241 132
f 242 243 244
f 245 246 42
f 247 248 249
f 250 251 77
f 252 253 254
f 255 99 256
f 76 257 258
f 259 100 260
f 6 261 262
f 263 264 7
f 5 265 266
f 267 268 126
f 125 269 270
f 271 272 127
f 273 19 274
f 275 276 20
f 277 278 279
f 280 65 281
f 282 283 63
f 284 285 286
f 287 288 60
f 61 289 290
f 291 292 62
f 293 294 295
f 296 297 59
f 298 299 58
f 300 113 301
f 302 303 304
f 305 306 307
f 308 309 310
f 142 311 312
f 313 314 315
f 316 317 139
f 318 319 320
f 321 56 322
f 55 323 324
f 325 54 326
f 327 328 329
f 330 331 79
f 332 333 53
f 334 335 80
f 29 336 337
f 338 339 30
f 37 340 341
f 342 343 120
f 344 92 345
f 346 347 93
f 348 349 350
f 351 46 352
f 353 354 355
f 356 90 357
f 47 358 359
f 360 361 136
f 362 363 364
f 48 365 366
f 367 89 368
f 369 370 88
f 371 372 145
f 373 374 49
f 375 376 50
f 377 378 379
f 137 380 381
f 382 51 383
f 384 385 86
f 386 387 144
f 388 389 83
f 390 391 52
f 392 393 394
f 138 395 396
f 397 81 398
f 399 400 401
f 402 403 143
f 404 405 406
f 407 408 409
f 410 411 412
f 82 413 414
f 415 416 84
f 31 417 418
f 419 420 121
f 35 421 422
f 423 424 122
f 425 36 426
f 427 428 91
f 429 430 431
f 432 433 434
f 435 436 437
f 438 34 439
f 440 441 442
f 33 443 444
f 445 32 446
f 447 87 448
f 449 85 450
f 451 452 453
f 454 455 456
f 457 458 459
f 460 461 462
f 463 464 465
f 466 467 468
f 469 470 471
f 472 473 474
f 475 476 477
f 478 479 480
f 481 482 483
f 484 485 486
f 487 488 489
f 490 491 492
f 493 494 495
f 496 497 498
f 499 500 501
f 502 503 504
f 505 506 507
f 508 509 510
f 511 512 513
f 514 515 516
f 517 518 519
f 520 521 522
f 523 524 525
f 526 527 528
f 529 530 531
f 532 533 534
f 535 536 537
f 538 539 540
f 64 541 542
f 543 544 545
f 546 547 111
f 548 549 66
f 550 551 109
f 552 553 149
f 554 555 556
f 67 557 558
f 559 108 560
f 561 562 107
f 563 564 68
f 565 566 106
f 567 568 140
f 569 570 571
f 148 572 573
f 574 69 575
f 576 577 70
f 578 579 147
f 580 581 104
f 582 583 71
f 584 585 586
f 72 587 588
f 589 103 590
f 591 592 73
f 593 594 141
f 595 596 74
f 597 598 75
f 599 600 601
f 602 603 604
f 605 606 607
f 101 608 609
f 610 611 102
f 8 612 613
f 614 615 129
f 18 616 617
f 618 619 128
f 620 17 621
f 622 623 110
f 624 625 626
f 627 628 629
f 630 631 632
f 16 633 634
f 635 636 637
f 15 638 639
f 640 130 641
f 642 643 11
f 644 645 131
f 646 14 647
f 648 105 649
f 650 651 652
f 653 654 655
f 12 656 657
f 13 658 659
f 660 661 662
f 663 10 664
f 665 666 667
f 668 669 670
f 671 672 673
f 674 675 676
f 677 9 678
f 679 680 681
f 682 683 684
f 685 686 687
f 688 689 690
f 691 692 693
f 694 695 696
f 697 698 699
f 700 701 702
f 703 704 705
f 706 707 708
f 709 710 711
f 712 713 714
f 715 716 717
f 718 719 720
f 721 722 723
f 724 725 726
f 727 728 729
f 730 731 732
f 733 734 735
f 736 737 738
f 739 740 741
f 742 743 744
f 745 746 747
f 748 749 750
f 751 752 753
f 754 755 756
f 757 758 759
f 760 761 762
f 763 764 765
f 766 767 768
f 769 770 771
f 772 773 774
f 775 776 777
f 778 779 780
f 781 782 783
f 784 785 786
f 787 788 789
f 790 791 792
f 793 794 795
f 796 797 798
f 799 800 801
f 802 803 804
f 805 806 807
f 808 809 810
f 811 812 813
f 814 815 816
f 817 818 819
f 820 821 822
f 823 824 825
f 826 827 828
f 829 830 831
f 832 833 834
f 835 836 837
f 838 839 840
f 841 842 843
f 844 845 846
f 847 848 849
f 850 851 852
f 853 854 855
f 856 857 858
f 859 860 861
f 862 863 864
f 865 866 867
f 868 869 870
f 871 872 873
f 874 875 876
f 877 878 879
f 880 881 882

